PathFileType	4	(X/Y/Z)	Kaydara																																																																																																																									
DataRate	CameraRate	NumFrames	NumMarkers	Units	OrigDataRate	OrigDataStartFrame	OrigNumFrames																																																																																																																					
30	30	4	41	mm	30	214	341																																																																																																																					
Frame#	Time	NABA_LFHD			NABA_RFHD			NABA_LBHD			NABA_RBHD			NABA_LFTShould			NABA_RFTShould			NABA_LRRShould			NABA_RRRShould			NABA_T10			NABA_STRN			NABA_TRUN			NABA_LSHO			NABA_LUPA			NABA_LELB			NABA_LFRM			NABA_LWRA			NABA_LWRB			NABA_LFIN			NABA_RSHO			NABA_RUPA			NABA_RELB			NABA_RFRM			NABA_RWRA			NABA_RWRB			NABA_RFIN			NABA_LFWT			NABA_RFWT			NABA_LBWT			NABA_RBWT			NABA_LTHI			NABA_LKNE			NABA_LSHN			NABA_LANK			NABA_LHEE			NABA_LTOE			NABA_RTHI			NABA_RKNE			NABA_RSHN			NABA_RANK			NABA_RHEE			NABA_RTOE		
		X1	Y1	Z1	X2	Y2	Z2	X3	Y3	Z3	X4	Y4	Z4	X5	Y5	Z5	X6	Y6	Z6	X7	Y7	Z7	X8	Y8	Z8	X9	Y9	Z9	X10	Y10	Z10	X11	Y11	Z11	X12	Y12	Z12	X13	Y13	Z13	X14	Y14	Z14	X15	Y15	Z15	X16	Y16	Z16	X17	Y17	Z17	X18	Y18	Z18	X19	Y19	Z19	X20	Y20	Z20	X21	Y21	Z21	X22	Y22	Z22	X23	Y23	Z23	X24	Y24	Z24	X25	Y25	Z25	X26	Y26	Z26	X27	Y27	Z27	X28	Y28	Z28	X29	Y29	Z29	X30	Y30	Z30	X31	Y31	Z31	X32	Y32	Z32	X33	Y33	Z33	X34	Y34	Z34	X35	Y35	Z35	X36	Y36	Z36	X37	Y37	Z37	X38	Y38	Z38	X39	Y39	Z39	X40	Y40	Z40	X41	Y41	Z41
																																																																																																																												
214	7.11	311.76743	1449.57397	129.05437	141.9766	1421.8045	137.19754	323.37143	1519.00406	23.95011	107.03803	1480.81741	61.4032	287.91737	1289.30191	-39.97375	159.91516	1284.37546	-32.32455	283.28632	1361.19843	-146.83337	138.32954	1356.3913	-130.73853	210.99979	1205.83298	-236.01749	229.84333	1227.95311	6.19517	232.58924	1125.13344	41.72961	378.28495	1319.97864	-87.11926	437.80602	1102.68448	-141.95366	446.08875	998.5762	-128.15183	436.21059	920.34058	-154.83272	387.26219	767.13036	-84.67402	458.41164	768.07312	-92.77089	442.33452	707.61963	-52.11259	74.51902	1316.32736	-59.47483	6.56869	1125.31776	-141.48297	-17.76346	991.37161	-101.18634	-21.32922	896.17798	-97.0472	50.17039	768.40858	-28.50597	-23.57576	757.44301	-24.90997	-7.10517	718.90869	2.82192	350.14126	916.86501	-54.95779	83.94526	918.47321	-33.38324	283.57199	981.61201	-220.17059	115.30008	994.00864	-211.81791	335.40661	635.81169	-230.432	337.43065	479.23241	-200.84381	280.10626	281.95227	-236.34216	296.03619	163.92183	-355.06332	233.85365	138.23263	-421.4817	270.47146	55.70036	-260.60627	70.09392	625.1656	-121.72289	99.79046	493.58704	25.09254	111.39977	322.77924	48.83021	104.56898	121.03041	37.38859	148.94282	64.28256	-18.5321	135.87764	63.22507	165.70881
215	7.143	307.63111	1451.68167	149.26507	137.97551	1423.20969	158.4658	318.37845	1520.92331	43.98726	102.43585	1481.86356	82.64971	283.33275	1291.39008	-19.11843	155.65671	1286.11771	-11.18531	278.35974	1363.34305	-125.89139	133.40358	1358.13385	-109.55976	205.66082	1208.03001	-215.64541	225.48403	1229.98985	27.1048	228.34667	1126.96762	62.0406	373.71628	1322.49222	-66.38435	433.36628	1106.5242	-124.03131	441.97651	1002.04643	-112.37259	431.29715	923.69041	-139.58628	383.35182	770.58838	-68.32469	454.27765	771.1692	-78.35228	439.10404	710.71205	-37.39781	70.00623	1318.11234	-37.94719	0.09124	1127.44453	-118.3589	-22.99715	993.21579	-78.08561	-26.61906	897.87704	-73.9279	46.28742	770.13916	-7.14078	-27.47564	759.36142	-1.4094	-10.48491	721.15433	25.93057	344.96975	918.52432	-35.74225	78.84495	920.38223	-13.02704	278.33988	983.00934	-200.71009	109.44424	995.83565	-191.25036	332.51007	637.94319	-211.77572	337.73556	481.5625	-182.66867	282.58944	284.55095	-223.82751	299.21051	171.5708	-347.52373	237.33824	148.44379	-414.67896	272.61768	55.37136	-258.29657	65.72384	627.10846	-105.34595	97.84988	492.69253	39.27248	111.40898	321.39042	58.48112	105.60056	120.07212	41.92323	149.4071	64.97411	-16.73895	139.49556	60.41875	168.36494
216	7.177	303.36308	1453.14545	169.54775	133.7293	1424.07669	179.76038	313.31087	1522.4469	64.20141	97.71278	1482.6268	103.94546	278.62991	1293.35358	1.50982	150.60633	1287.82837	9.82393	273.24516	1365.50568	-105.45531	128.16543	1359.8938	-88.51064	200.14353	1210.336	-195.49244	220.86409	1231.51016	47.48606	223.81338	1128.51761	82.32265	368.77018	1324.65363	-45.65668	428.95409	1109.851	-105.33133	437.94773	1005.04219	-95.22327	427.15847	926.66183	-122.9334	378.89477	773.61519	-51.32521	449.7723	773.96683	-61.91242	434.57504	713.52333	-20.94241	65.1037	1319.66156	-16.63184	-6.07207	1129.01733	-96.11909	-28.57361	994.61075	-55.40131	-31.96496	899.18755	-50.91711	42.51811	772.15004	15.22945	-31.18158	761.08574	22.33662	-13.64963	723.16071	49.53707	339.51324	920.44922	-16.39999	73.71678	922.314	7.35845	272.10102	984.44855	-181.13207	103.79086	998.06725	-170.68701	329.86034	640.00664	-191.73956	338.16216	483.93887	-162.35502	285.40964	287.43542	-209.89611	303.61448	179.93046	-338.60241	242.10693	159.59491	-406.25603	274.78354	54.70943	-255.22261	63.74775	629.48109	-89.88392	95.18685	492.37633	51.94692	110.14871	320.28988	67.09184	105.76994	119.54681	44.38946	150.324	65.74541	-15.94195	140.77852	59.72586	169.37801
217	7.21	298.96296	1453.93295	189.2836	129.52106	1424.47479	200.34004	308.22216	1523.6084	84.12526	92.91438	1483.22342	124.89696	273.59686	1295.18661	21.5107	145.36032	1289.45953	30.17938	267.7482	1367.67975	-85.3256	122.86444	1361.69952	-68.21955	194.78065	1212.5618	-175.98499	216.03268	1233.05847	67.53259	219.21749	1130.02365	102.25039	363.53931	1326.8837	-25.48523	423.83976	1112.93777	-86.58821	433.5051	1007.94823	-77.08351	422.90913	929.47754	-105.03516	374.0638	776.47064	-32.95258	444.9535	776.7421	-43.86159	429.29039	716.37459	-3.057	60.07292	1321.27472	3.90507	-11.4295	1130.41954	-74.74828	-33.77687	996.08681	-33.37292	-36.73729	900.55267	-28.10843	39.01757	774.40086	38.18413	-34.55012	762.9525	46.04837	-16.64581	725.43533	73.41645	334.35455	922.28806	2.85696	69.09438	924.45435	27.19007	265.93985	985.93002	-161.79674	99.1186	1000.33798	-150.70048	327.92034	641.35841	-170.35583	338.7426	485.80936	-139.67717	288.93005	290.47007	-194.0929	308.02542	188.82042	-327.66563	246.99322	171.58268	-395.79254	276.6576	54.05238	-251.63198	59.68337	631.89934	-74.48038	91.48027	492.26051	65.06265	107.84534	319.19266	75.8533	105.16394	119.15608	46.56188	150.52408	66.6585	-15.21072	140.4935	59.33232	169.76795
